<?xml version="1.0" encoding="utf-8"?>
<!-- Generator: Adobe Illustrator 21.0.0, SVG Export Plug-In . SVG Version: 6.00 Build 0)  -->
<svg version="1.1" id="Layer_1" xmlns="http://www.w3.org/2000/svg" xmlns:xlink="http://www.w3.org/1999/xlink" x="0px" y="0px"
	 viewBox="0 0 277.4 98.7" style="enable-background:new 0 0 277.4 98.7;" xml:space="preserve">
<style type="text/css">
	.st0{fill:#A7A9AC;}
	.st1{fill:#D2AB67;}
	.st2{fill:#CAA669;}
	.st3{fill:#9DA2A7;}
</style>
<g>
	<g>
		<path class="st0" d="M79.5,65.2c-6.1,15.2-20.9,25.9-38.2,25.9C18.4,91.1,0,72.5,0,49.7c0-5.8,1.2-11.4,3.3-16.5l37.6-0.6
			l-3.1,4.2l-4.7,11.2c6.5,5.8,11.3,2.8,14.8-6.8l6-0.4l15.6,15.1l0,0c3.9,3.4-1,7.5-3.6,4.7l-9.5-9.4c-0.7-0.2-1.1,0.2-1.4,0.8
			l9.4,9.3c1.2,1.1,1.2,3,0.1,4.1l0,0c-1.1,1.1-3,1.2-4.2,0l-9.4-9.3c-0.1-0.1-0.3-0.3-0.3-0.3l0,0c-0.8-0.3-1.4,0.3-1,1l7.9,7.9
			c1.1,1.1,1.2,3,0,4.2l0,0c-1.1,1.1-3,1.1-4.1,0l-5-5c0,0-0.8-0.8-1-1c0-0.2,0-0.3,0-0.3c0.1-1-0.3-2.1-0.9-2.9
			c0-0.1,0-0.1-0.1-0.2c-0.1-0.2-0.3-0.3-0.3-0.3c0,0-0.1,0-0.1-0.1c-0.4-0.3-1-0.7-1.7-0.8l0,0c-1-0.3-1.9-0.2-2.8,0.3v0.1l0,0l0,0
			h-0.1l0,0l0,0h-0.1v0.1h-0.1l0,0h-0.1v0.1H41l0,0l0,0h-0.1v0.1h-0.1l0,0l0,0h-0.1l0,0l0,0h0l0,0l0,0c0,0,0,0-0.1,0l0,0l0,0V59
			h-0.1l0,0l0,0l0,0l0,0c-0.1,0.1-0.1,0.1-0.1,0.1l0,0h-0.1v0.1l0,0c0,0,0,0-0.1,0l0,0l0,0v0.1l0,0h-0.1l0,0l0,0
			c0,0.1-0.1,0.1-0.1,0.1l0,0c0,0.1-0.1,0.1-0.1,0.2l0,0l0,0H40l0,0c0,0,0,0.1-0.1,0.1l0,0l0,0c0,0,0,0,0,0.1l0,0l0,0h0l0,0
			c0,0.1,0,0.1-0.1,0.1l0.2-0.3c0-0.1,0-0.1,0-0.1v-0.1v-0.1l0,0c0-0.1,0-0.1,0.1-0.1V59l0,0v-0.1l0,0l0,0v-0.1v-0.1v-0.1l0,0v-0.1
			l0,0v-0.1v-0.1v-0.1l0,0v-0.1l0,0c0-0.1,0-0.1,0-0.1V58v0l0,0c0-0.1,0-0.1,0-0.1v-0.1c0,0,0,0,0-0.1l0,0v-0.1v-0.1l0,0v-0.1l0,0
			L40,57.5v-0.1l0,0v-0.1v-0.1l0,0l-0.1,0l0,0v-0.1V57l0,0v-0.1c-0.1,0-0.1,0-0.1-0.1l0,0c0-0.1-0.1-0.2-0.1-0.3l0,0v-0.1h-0.1
			c0-0.1,0-0.1,0-0.1l0,0v-0.1l0,0l0,0v-0.1h-0.1v-0.1l0,0l-0.1-0.1c0,0,0,0,0-0.1l0,0c0,0-0.1,0-0.1-0.1l0,0
			c-0.1-0.2-0.3-0.3-0.3-0.4l0,0c0-0.1-0.1-0.1-0.1-0.1l0,0c0-0.1,0-0.1-0.1-0.1l0,0c0-0.1,0-0.1-0.1-0.1l0,0v-0.1h-0.1
			c0,0,0,0,0-0.1h-0.1c0,0,0,0,0-0.1h-0.1c-0.2-0.1-0.3-0.3-0.5-0.3l0,0c0,0,0,0-0.1,0l0,0c0,0,0-0.1-0.1-0.1l0,0h-0.1l0,0
			c0-0.1-0.1-0.1-0.1-0.1l0,0c-0.1,0-0.1,0-0.1,0l0,0c-0.1-0.1-0.1-0.1-0.1-0.1h-0.1c0,0,0,0-0.1,0l0,0l0,0
			c-0.2-0.1-0.3-0.2-0.4-0.2l0,0c-0.5-0.2-1-0.2-1.4-0.2l0,0h-0.1l0,0c-0.2,0-0.3,0.1-0.3,0.1l0,0c-0.1,0-0.3,0.1-0.3,0.1l0,0
			c-0.1,0.1-0.2,0.1-0.3,0.1v0.1h-0.1l0,0h-0.1l0,0c-0.1,0.1-0.2,0.1-0.2,0.1l0,0l0,0.2l0,0h-0.1l0,0H34v0.1h-0.1h-0.1v0.1l0,0h-0.1
			l0,0l-0.1,0.1l0,0h-0.1V55h-0.1l0,0l-0.1,0.1l0,0l0,0h-0.1v0.1h-0.1l0,0l0,0l0,0c0,0.1-0.1,0.1-0.1,0.1l0,0l0,0l0,0l0,0l-0.1,0.1
			l0,0l0,0H33v0.1l0,0l0,0l0,0.1l0,0h-0.1l0,0l0,0h-0.1v0.1l0,0l0,0l0,0c-0.1,0.1-0.1,0.1-0.1,0.1l0,0l-0.1,0.1l0,0v0.1h-0.1
			c0,0,0,0,0,0.1l0,0c0,0-0.1,0-0.1,0.1l0,0l0,0l-0.1,0.1l0,0v0.1h-0.1l0,0c0,0.1,0,0.1,0,0.1c0-1.8-1.3-3.5-3.1-4
			c-1.7-0.3-3.5,0.3-4.4,1.7c0,0,0-0.1-0.1-0.1l0,0l0,0l0,0v-0.1l0,0l0,0l0,0l0,0v-0.1l0,0v-0.1l0,0l0,0l0,0l0,0h-0.1v-0.1l0,0l0,0
			l0,0l0,0l0,0l0,0l0,0v-0.1l0,0l0,0l0,0l0,0l0,0l0,0v-0.1h-0.1l0,0l0,0l0,0l0,0v-0.1l0,0l0,0l0,0l0,0l0,0v-0.1l0,0l-0.1-0.1l0,0
			l0,0v-0.1l0,0L24.4,53l0,0l0,0v-0.1h-0.1l0,0v-0.1l0,0v-0.1h-0.1l0,0v-0.1l0,0v-0.1h-0.1l0,0v-0.1c0,0,0,0-0.1,0l0,0v-0.1l0,0
			v-0.1h-0.1l0,0v-0.1l0,0h-0.1v-0.1l0,0h0c0-0.1,0-0.1,0-0.1l0,0l-0.1,0.1l0,0l0,0l0,0L23.7,52l0,0l0,0L23.6,52l0,0l0,0v-0.1h-0.1
			v-0.1h-0.1l0,0v-0.1h-0.1l0,0l0,0l-0.1-0.1l0,0l0,0l-0.1-0.1l0,0l0,0l0,0l-0.1-0.1l0,0l0,0H23v-0.1h0l0,0l0,0l-0.1-0.1l0,0h-0.1
			l0,0v0l0,0h-0.1l0,0l0,0l-0.1-0.1l0,0h-0.1l0,0l0,0l-0.1-0.1l0,0h-0.1l0,0V51l0,0c-0.1,0-0.1,0-0.2,0l0,0l-0.1-0.1l0,0h0l0,0l0,0
			v-0.1h-0.1l0,0c0,0,0,0-0.1,0l0,0l0,0l-0.1-0.1l0,0h-0.1l0,0l0,0h-0.1l0,0l-0.1-0.1l0,0h-0.1c0,0,0,0-0.1,0l0,0
			c-2.3-0.6-4.7,0.9-5.2,3.1l-0.8,3.7H9.7c3.6,14.4,18.4,25.2,36,25.2c12.3,0,22.8-4,29.4-12.1C76.3,69.2,78,67.4,79.5,65.2
			L79.5,65.2z M29.2,52.2L29.2,52.2L29.2,52.2z M47,64.2c-0.3,2.3-0.9,4.4-2,6.1l1.6,1.8l1,1c1.1,1.2,3,1.2,4.1,0l0,0
			c1.2-1.1,1.1-3,0-4.1l-3.4-3.4L47,64.2z"/>
		<path class="st1" d="M41.6,7.6C52.7,7.2,62.8,12,70.2,19.5c4.8,4.7,8.5,10.8,10.7,17.4c3,9.2,2.5,18-0.8,27.2
			c-3.7-3.8-7.4-7.4-11.2-11.2L54.5,39.2l-7.4,0.6c-1.4,2.6-3.6,7.9-6.5,9c-1.7,0.7-4.6,0.2-5.9-1.3l3.9-9.2
			c0.4-0.9,2.4-3.6,3.1-4.3c1-0.8,2.4-1.3,4.3-1.4c1.4-0.1,2.9,0,4.3,0h18.5c-7.5-10.1-20.5-16.7-33.2-16.7C23,15.9,11.9,23,4.4,31
			C11.3,18.2,21.7,8.5,41.6,7.6z"/>
	</g>
	<path class="st1" d="M36.5,56.1L36.5,56.1c1.7,0.3,2.7,2.2,2.3,3.9l-1.4,5.3c-0.4,1.7-2.3,2.8-4,2.4l0,0c-1.7-0.3-2.7-2.2-2.3-3.8
		l1.4-5.4C33,56.7,34.8,55.6,36.5,56.1z"/>
	<path class="st1" d="M28.8,54L28.8,54c1.7,0.3,2.8,2.2,2.4,3.9l-1.4,5.4c-0.4,1.8-2.4,2.9-4.1,2.4l0,0c-1.7-0.4-2.8-2.2-2.4-3.9
		l1.5-5.5C25.2,54.6,27,53.5,28.8,54z"/>
	<path class="st1" d="M21.2,52.2L21.2,52.2c1.7,0.3,2.7,2.1,2.4,3.7L22.7,60c-0.4,1.7-2.1,2.7-3.7,2.4l0,0c-1.7-0.4-2.7-2.2-2.4-3.8
		l1-4.1C17.9,52.8,19.5,51.8,21.2,52.2z"/>
	<path class="st1" d="M43.7,59.7L43.7,59.7c1.7,0.3,2.6,2,2.2,3.7l-0.7,2.6l-0.3,1.2c-1,4-7.1,2.5-6-1.4l0.3-1l0.8-2.9
		C40.3,60.3,42,59.3,43.7,59.7z"/>
</g>
<g>
	<path class="st2" d="M121.9,46.6h-12.7l-1.8,6.1H96l13.6-37.1h12.2l13.5,37.1h-11.6L121.9,46.6L121.9,46.6z M119.6,38.6l-4-13.4
		l-4,13.3L119.6,38.6L119.6,38.6z M140.5,15.6h14.7l5.6,22.6l5.6-22.6h14.7v37.1h-9.1V24.4l-7,28.3h-8.3l-7-28.3v28.3h-9.1
		L140.5,15.6L140.5,15.6z M214,37.5l9.8,3c-0.6,2.8-1.7,5.2-3.1,7c-1.4,1.9-3.1,3.3-5.3,4.2c-2.1,1-4.7,1.5-8,1.5
		c-4,0-7.2-0.6-9.6-1.7c-2.5-1.2-4.7-3.2-6.5-6.2c-1.8-2.9-2.7-6.8-2.7-11.3c0-6.1,1.6-10.9,4.7-14.1c3.2-3.3,7.7-4.9,13.5-4.9
		c4.5,0,8.1,1,10.7,2.9c2.6,1.9,4.5,4.8,5.8,8.7l-9.8,2.2c-0.3-1.1-0.7-2-1.1-2.4c-0.6-0.9-1.4-1.5-2.3-2c-0.9-0.5-2-0.7-3.1-0.7
		c-2.5,0-4.5,1-5.9,3.1c-1,1.5-1.5,4-1.5,7.3c0,4.1,0.6,6.9,1.8,8.4c1.3,1.5,2.9,2.3,5.2,2.3c2.2,0,3.8-0.6,4.9-1.9
		C212.7,41.6,213.5,39.8,214,37.5L214,37.5z M253.1,46.6h-12.7l-1.8,6.1h-11.4l13.6-37.1h12.2l13.5,37.1h-11.7L253.1,46.6
		L253.1,46.6z M250.7,38.6l-3.9-13.4l-4,13.4H250.7z"/>
	<g>
		<path class="st0" d="M99.3,55.6v15.9H96V55.6H99.3z M98,55.6h3.1c1.3,0,2.3,0.2,3.2,0.6c0.9,0.4,1.5,1,2,1.7
			c0.5,0.8,0.7,1.7,0.7,2.7c0,1-0.2,2-0.7,2.7c-0.5,0.8-1.1,1.3-2,1.7c-0.9,0.4-2,0.6-3.2,0.6H98v-2.8h3.1c0.8,0,1.5-0.2,2-0.6
			c0.5-0.4,0.8-1,0.8-1.7c0-0.8-0.3-1.3-0.8-1.7s-1.2-0.6-2-0.6H98V55.6z"/>
		<path class="st0" d="M117.5,55.6v15.9h-3.3V55.6H117.5z M116.2,55.6h3.3c1.3,0,2.3,0.2,3.2,0.6s1.5,1,2,1.7
			c0.5,0.8,0.7,1.7,0.7,2.6s-0.2,1.9-0.7,2.6c-0.5,0.8-1.1,1.4-2,1.8c-0.9,0.4-2,0.6-3.2,0.6h-3.3v-2.6h3.1c0.6,0,1-0.1,1.5-0.3
			c0.4-0.2,0.8-0.5,1-0.8c0.2-0.3,0.3-0.8,0.3-1.3c0-0.5-0.1-0.9-0.3-1.3c-0.2-0.3-0.6-0.6-1-0.8c-0.4-0.2-0.9-0.3-1.5-0.3h-3.1
			V55.6z M121.2,64.1l5.2,7.4h-3.8l-4.8-7.4H121.2z"/>
		<path class="st0" d="M132.6,60.2c0.4-1,1-1.9,1.7-2.6c0.8-0.8,1.7-1.3,2.6-1.7c1-0.4,2.2-0.6,3.3-0.6c1.2,0,2.3,0.2,3.3,0.6
			c1,0.4,1.9,1,2.6,1.7c0.8,0.8,1.3,1.6,1.7,2.6c0.4,1,0.6,2.1,0.6,3.3c0,1.2-0.2,2.3-0.6,3.3c-0.4,1-1,1.9-1.7,2.6
			c-0.8,0.8-1.7,1.3-2.6,1.7c-1,0.4-2.2,0.6-3.4,0.6c-1.3,0-2.4-0.2-3.4-0.6c-1-0.4-1.9-1-2.6-1.7c-0.8-0.8-1.3-1.7-1.7-2.6
			c-0.4-1-0.6-2.2-0.6-3.3C132,62.3,132.2,61.2,132.6,60.2z M136,66.2c0.4,0.8,1,1.4,1.7,1.9c0.8,0.5,1.6,0.7,2.6,0.7
			s1.9-0.2,2.6-0.7c0.8-0.5,1.3-1,1.7-1.9c0.4-0.8,0.6-1.7,0.6-2.7c0-1-0.2-2-0.6-2.7c-0.4-0.8-1-1.4-1.7-1.9s-1.6-0.7-2.6-0.7
			c-1,0-1.9,0.2-2.6,0.7c-0.8,0.5-1.3,1-1.7,1.9c-0.4,0.8-0.6,1.7-0.6,2.7C135.4,64.5,135.6,65.5,136,66.2z"/>
		<path class="st0" d="M159.1,55.6v15.9h-3.3V55.6H159.1z M157.9,55.6h3.1c1.3,0,2.3,0.2,3.2,0.6s1.5,1,2,1.7
			c0.5,0.8,0.7,1.7,0.7,2.7c0,1-0.2,2-0.7,2.7c-0.5,0.8-1.1,1.3-2,1.7c-0.9,0.4-2,0.6-3.2,0.6h-3.1v-2.8h3.1c0.8,0,1.5-0.2,2-0.6
			c0.5-0.4,0.8-1,0.8-1.7c0-0.8-0.3-1.3-0.8-1.7s-1.2-0.6-2-0.6h-3.1V55.6z"/>
		<path class="st0" d="M177.2,55.6v15.9H174V55.6H177.2z M176.1,55.6h8v2.8h-8V55.6z M176.1,61.7h7.6v2.7h-7.6V61.7z M176.1,68.7h8
			v2.8h-8V68.7z"/>
		<path class="st0" d="M195.2,55.6v15.9h-3.3V55.6H195.2z M193.9,55.6h3.3c1.3,0,2.3,0.2,3.2,0.6s1.5,1,2,1.7
			c0.5,0.8,0.7,1.7,0.7,2.6s-0.2,1.9-0.7,2.6c-0.5,0.8-1.1,1.4-2,1.8c-0.9,0.4-2,0.6-3.2,0.6h-3.3v-2.6h3.1c0.6,0,1-0.1,1.5-0.3
			c0.4-0.2,0.8-0.5,1-0.8c0.2-0.3,0.3-0.8,0.3-1.3c0-0.5-0.1-0.9-0.3-1.3c-0.2-0.3-0.6-0.6-1-0.8c-0.4-0.2-0.9-0.3-1.5-0.3h-3.1
			L193.9,55.6L193.9,55.6z M199,64.1l5.2,7.4h-3.8l-4.8-7.4H199z"/>
		<path class="st0" d="M209,55.6h11.8v2.9h-4.3v13h-3.3v-13H209L209,55.6L209,55.6z"/>
		<path class="st0" d="M230.5,55.6v15.9h-3.3V55.6H230.5z"/>
		<path class="st0" d="M241.6,55.6v15.9h-3.1V55.6H241.6z M240.5,55.6h8v2.8h-8V55.6z M240.5,61.7h7.6v2.7h-7.6V61.7z M240.5,68.7h8
			v2.8h-8V68.7z"/>
		<path class="st0" d="M258.9,67.7c0.4,0.4,0.8,0.8,1.3,1c0.5,0.2,1,0.3,1.6,0.3s1.2-0.1,1.6-0.5c0.4-0.3,0.6-0.8,0.6-1.4
			c0-0.5-0.1-0.9-0.3-1.2c-0.3-0.3-0.6-0.6-1.1-0.8c-0.5-0.2-1.1-0.5-1.8-0.8c-0.3-0.1-0.8-0.3-1.3-0.6c-0.5-0.2-1-0.6-1.4-0.9
			c-0.4-0.3-0.8-0.8-1.1-1.4c-0.3-0.6-0.4-1.2-0.4-2c0-0.9,0.2-1.7,0.7-2.4c0.5-0.6,1.1-1.2,1.9-1.5c0.8-0.3,1.7-0.6,2.6-0.6
			c1,0,1.9,0.1,2.6,0.5c0.8,0.3,1.3,0.8,1.8,1.3c0.5,0.6,0.9,1,1.1,1.6l-2.6,1.4c-0.2-0.3-0.5-0.7-0.8-1c-0.3-0.3-0.6-0.6-1-0.8
			c-0.3-0.2-0.8-0.3-1.3-0.3c-0.6,0-1.1,0.1-1.5,0.4c-0.3,0.3-0.5,0.6-0.5,1s0.1,0.8,0.4,1c0.3,0.3,0.6,0.6,1.2,0.8
			c0.6,0.3,1.2,0.6,2,0.8c0.5,0.2,1,0.4,1.5,0.7c0.5,0.3,0.9,0.6,1.3,1c0.4,0.4,0.7,0.8,0.9,1.4s0.3,1.1,0.3,1.8
			c0,0.8-0.1,1.5-0.5,2.1c-0.3,0.6-0.7,1.1-1.3,1.5c-0.6,0.4-1.1,0.8-1.8,1c-0.6,0.2-1.3,0.3-2.1,0.3c-1,0-1.9-0.2-2.7-0.6
			c-0.8-0.3-1.6-0.9-2.2-1.5c-0.6-0.6-1.1-1.3-1.5-2.1l2.3-1.7C258.1,66.8,258.4,67.3,258.9,67.7z"/>
	</g>
	<g>
		<path class="st3" d="M97.3,81.8L97.3,81.8c0,0.1-0.1,0.1-0.1,0.1c-0.1,0-0.1,0-0.2,0.1c-0.1,0-0.2,0-0.3,0c-0.1,0-0.2,0-0.3,0
			c-0.1,0-0.1,0-0.2-0.1c-0.1,0-0.1-0.1-0.1-0.1v-0.1v-6v-0.1c0,0,0.1-0.1,0.1-0.1s0.1,0,0.2-0.1c0.1,0,0.2,0,0.3,0
			c0.1,0,0.2,0,0.3,0c0.1,0,0.1,0,0.2,0.1c0.1,0,0.1,0.1,0.1,0.1v0.1V81.8L97.3,81.8z M104,81.5c0,0.1,0,0.1-0.1,0.2
			c0,0.1-0.1,0.1-0.1,0.1c-0.1,0.1-0.1,0.1-0.1,0.1c-0.1,0-0.1,0-0.2,0h-0.6c-0.1,0-0.2,0-0.3,0c-0.1,0-0.1-0.1-0.2-0.1
			c-0.1-0.1-0.1-0.1-0.2-0.3c-0.1-0.1-0.1-0.2-0.2-0.4l-1.6-3c-0.1-0.2-0.2-0.3-0.3-0.6c-0.1-0.2-0.2-0.4-0.3-0.6l0,0
			c0,0.2,0,0.5,0,0.7c0,0.2,0,0.5,0,0.7v3.3v0.1l-0.1,0.1c-0.1,0-0.1,0-0.2,0.1c-0.1,0-0.1,0-0.3,0c-0.1,0-0.2,0-0.3,0
			c-0.1,0-0.1,0-0.2-0.1c-0.1,0-0.1-0.1-0.1-0.1v-0.1V76c0-0.1,0.1-0.3,0.1-0.3c0.1-0.1,0.2-0.1,0.3-0.1h0.7c0.1,0,0.2,0,0.3,0
			c0.1,0,0.1,0.1,0.2,0.1c0.1,0.1,0.1,0.1,0.2,0.2c0.1,0.1,0.1,0.2,0.2,0.3l1.3,2.3c0.1,0.1,0.1,0.3,0.2,0.4
			c0.1,0.1,0.1,0.3,0.2,0.4c0.1,0.1,0.1,0.3,0.2,0.4c0.1,0.1,0.1,0.3,0.2,0.4l0,0c0-0.2,0-0.5,0-0.7c0-0.3,0-0.5,0-0.7v-3v-0.1
			l0.1-0.1c0.1,0,0.1,0,0.2-0.1c0.1,0,0.1,0,0.3,0s0.2,0,0.3,0s0.1,0,0.1,0.1c0.1,0,0.1,0.1,0.1,0.1v0.1V81.5L104,81.5z M109.5,76.2
			c0,0.1,0,0.2,0,0.3c0,0.1,0,0.1-0.1,0.1c0,0.1-0.1,0.1-0.1,0.1h-0.1h-1.6v5.1v0.1c0,0-0.1,0.1-0.1,0.1c-0.1,0-0.1,0-0.2,0.1
			c-0.1,0-0.2,0-0.3,0c-0.1,0-0.2,0-0.3,0s-0.1,0-0.2-0.1c-0.1,0-0.1-0.1-0.1-0.1v-0.1v-5h-1.6h-0.1l-0.1-0.1c0-0.1,0-0.1-0.1-0.1
			c0-0.1,0-0.1,0-0.3c0-0.1,0-0.2,0-0.3s0-0.1,0.1-0.1c0-0.1,0.1-0.1,0.1-0.1h0.1h4.5h0.1l0.1,0.1c0,0.1,0,0.1,0.1,0.1
			C109.5,76,109.5,76.1,109.5,76.2L109.5,76.2z M114,81.5c0,0.1,0,0.1,0,0.2s0,0.1-0.1,0.1c0,0.1-0.1,0.1-0.1,0.1h-0.1h-3.2
			c-0.1,0-0.2,0-0.3-0.1c-0.1-0.1-0.1-0.1-0.1-0.3V76c0-0.1,0.1-0.3,0.1-0.3c0.1-0.1,0.1-0.1,0.3-0.1h3.1h0.1l0.1,0.1
			c0,0.1,0,0.1,0.1,0.1c0,0.1,0,0.1,0,0.3c0,0.1,0,0.1,0,0.2s0,0.1-0.1,0.1c0,0.1-0.1,0.1-0.1,0.1h-0.1h-2.2v1.5h1.9h0.1l0.1,0.1
			c0,0.1,0,0.1,0.1,0.1c0,0.1,0,0.1,0,0.2c0,0.1,0,0.1,0,0.2s0,0.1-0.1,0.1c0,0.1-0.1,0.1-0.1,0.1h-0.1h-1.9v1.8h2.3h0.1l0.1,0.1
			c0,0.1,0,0.1,0.1,0.1C114,81.3,114,81.4,114,81.5L114,81.5z M120.1,76.7c0,0.1,0,0.2,0,0.3c0,0.1,0,0.1-0.1,0.1
			c0,0.1,0,0.1-0.1,0.1h-0.1c-0.1,0-0.1,0-0.2-0.1s-0.2-0.1-0.3-0.2c-0.1-0.1-0.3-0.1-0.6-0.2s-0.5-0.1-0.8-0.1
			c-0.3,0-0.6,0.1-0.8,0.1c-0.3,0.1-0.5,0.3-0.6,0.4c-0.2,0.2-0.3,0.4-0.4,0.7c-0.1,0.3-0.1,0.6-0.1,0.9c0,0.3,0.1,0.7,0.1,1
			c0.1,0.3,0.2,0.5,0.4,0.7c0.1,0.2,0.3,0.3,0.6,0.4c0.3,0.1,0.5,0.1,0.8,0.1c0.1,0,0.3,0,0.4-0.1c0.1,0,0.3-0.1,0.4-0.1v-1.5h-1.2
			c-0.1,0-0.1-0.1-0.1-0.1c0-0.1-0.1-0.2-0.1-0.3c0-0.1,0-0.1,0-0.2s0-0.1,0.1-0.1c0-0.1,0.1-0.1,0.1-0.1h0.1h2.2c0.1,0,0.1,0,0.1,0
			c0.1,0,0.1,0.1,0.1,0.1c0,0.1,0.1,0.1,0.1,0.1c0,0.1,0,0.1,0,0.2v2.5c0,0.1,0,0.2-0.1,0.3c0,0.1-0.1,0.1-0.2,0.1
			c-0.1,0.1-0.2,0.1-0.4,0.1c-0.1,0.1-0.3,0.1-0.5,0.1c-0.1,0-0.3,0.1-0.5,0.1s-0.3,0-0.5,0c-0.5,0-1-0.1-1.4-0.2s-0.8-0.3-1-0.6
			c-0.3-0.3-0.5-0.6-0.6-1c-0.1-0.4-0.2-0.8-0.2-1.3c0-0.5,0.1-1,0.2-1.4c0.1-0.4,0.3-0.8,0.7-1c0.3-0.3,0.6-0.5,1-0.7
			c0.4-0.1,0.8-0.2,1.3-0.2c0.3,0,0.6,0,0.8,0.1c0.2,0.1,0.4,0.1,0.6,0.1c0.1,0.1,0.3,0.1,0.4,0.1c0.1,0.1,0.2,0.1,0.2,0.1
			c0.1,0.1,0.1,0.1,0.1,0.2C120.1,76.4,120.1,76.5,120.1,76.7L120.1,76.7z M126.1,81.8C126.1,81.9,126.1,81.9,126.1,81.8L126,82
			c-0.1,0-0.1,0-0.2,0s-0.2,0-0.4,0c-0.1,0-0.3,0-0.3,0s-0.1,0-0.2-0.1c-0.1,0-0.1-0.1-0.1-0.1l-0.1-0.1l-0.6-1.4
			c-0.1-0.1-0.1-0.3-0.2-0.4s-0.1-0.2-0.2-0.3s-0.1-0.1-0.3-0.2c-0.1-0.1-0.2-0.1-0.3-0.1h-0.4v2.4v0.1c0,0-0.1,0.1-0.1,0.1
			c-0.1,0-0.1,0-0.2,0.1c-0.1,0-0.2,0-0.3,0c-0.1,0-0.2,0-0.3,0c-0.1,0-0.1,0-0.2-0.1c-0.1,0-0.1-0.1-0.1-0.1v-0.1V76
			c0-0.1,0.1-0.3,0.1-0.3c0.1-0.1,0.1-0.1,0.3-0.1h1.7c0.1,0,0.3,0,0.4,0c0.1,0,0.2,0,0.3,0c0.3,0.1,0.5,0.1,0.7,0.2
			c0.2,0.1,0.3,0.2,0.5,0.3c0.1,0.1,0.3,0.3,0.3,0.5s0.1,0.4,0.1,0.7c0,0.2,0,0.4-0.1,0.6c-0.1,0.2-0.1,0.3-0.2,0.5
			s-0.2,0.3-0.4,0.3c-0.1,0.1-0.3,0.2-0.6,0.3c0.1,0.1,0.2,0.1,0.3,0.1c0.1,0.1,0.1,0.1,0.2,0.2s0.1,0.2,0.2,0.3
			c0.1,0.1,0.1,0.3,0.2,0.4l0.6,1.3c0.1,0.1,0.1,0.2,0.1,0.3C126.1,81.8,126.1,81.8,126.1,81.8L126.1,81.8z M124.4,77.5
			c0-0.2-0.1-0.4-0.1-0.6c-0.1-0.1-0.3-0.3-0.5-0.3c-0.1,0-0.1,0-0.2-0.1c-0.1,0-0.2,0-0.3,0h-0.6v1.8h0.6c0.2,0,0.3,0,0.5-0.1
			c0.1-0.1,0.3-0.1,0.3-0.2c0.1-0.1,0.1-0.2,0.2-0.3C124.4,77.8,124.4,77.6,124.4,77.5L124.4,77.5z M128.3,81.8L128.3,81.8
			c0,0.1-0.1,0.1-0.1,0.1c-0.1,0-0.1,0-0.2,0.1c-0.1,0-0.2,0-0.3,0c-0.1,0-0.2,0-0.3,0c-0.1,0-0.1,0-0.2-0.1c-0.1,0-0.1-0.1-0.1-0.1
			v-0.1v-6v-0.1c0,0,0.1-0.1,0.1-0.1c0.1,0,0.1,0,0.2-0.1c0.1,0,0.2,0,0.3,0c0.1,0,0.2,0,0.3,0c0.1,0,0.1,0,0.2,0.1
			c0.1,0,0.1,0.1,0.1,0.1v0.1V81.8L128.3,81.8z M133.9,76.2c0,0.1,0,0.2,0,0.3c0,0.1,0,0.1-0.1,0.1c0,0.1-0.1,0.1-0.1,0.1h-0.1h-1.6
			v5.1v0.1c0,0-0.1,0.1-0.1,0.1c-0.1,0-0.1,0-0.2,0.1c-0.1,0-0.2,0-0.3,0c-0.1,0-0.2,0-0.3,0c-0.1,0-0.1,0-0.2-0.1
			c-0.1,0-0.1-0.1-0.1-0.1v-0.1v-5h-1.5h-0.1l-0.1-0.1c0-0.1,0-0.1-0.1-0.1c0-0.1,0-0.1,0-0.3c0-0.1,0-0.2,0-0.3s0-0.1,0.1-0.1
			c0-0.1,0.1-0.1,0.1-0.1h0.1h4.5h0.1l0.1,0.1c0,0.1,0,0.1,0.1,0.1C133.9,76,133.9,76.1,133.9,76.2L133.9,76.2z M137.3,79.6v2.2v0.1
			c0,0-0.1,0.1-0.1,0.1s-0.1,0-0.2,0.1c-0.1,0-0.2,0-0.3,0c-0.1,0-0.2,0-0.3,0c-0.1,0-0.1,0-0.2-0.1c-0.1,0-0.1-0.1-0.1-0.1v-0.1
			v-2.2l-1.7-3.5c-0.1-0.1-0.1-0.2-0.1-0.3c0-0.1,0-0.1,0-0.1c0.1,0,0.1-0.1,0.2-0.1c0.1,0,0.2,0,0.4,0c0.1,0,0.3,0,0.3,0
			c0.1,0,0.1,0,0.2,0.1c0.1,0,0.1,0.1,0.1,0.1c0,0,0.1,0.1,0.1,0.1l0.7,1.5c0.1,0.1,0.1,0.3,0.2,0.5c0.1,0.1,0.1,0.3,0.2,0.6l0,0
			c0.1-0.2,0.1-0.3,0.2-0.5c0.1-0.1,0.1-0.3,0.2-0.5l0.7-1.5c0-0.1,0.1-0.1,0.1-0.1c0,0,0.1-0.1,0.1-0.1c0.1,0,0.1,0,0.2-0.1
			c0.1,0,0.2,0,0.3,0c0.2,0,0.3,0,0.4,0c0.1,0,0.1,0,0.2,0.1c0.1,0.1,0.1,0.1,0,0.1c0,0.1-0.1,0.1-0.1,0.3L137.3,79.6L137.3,79.6z
			 M145.5,83.6L145.5,83.6l-0.1,0.1c-0.1,0-0.1,0-0.2,0.1c-0.1,0-0.1,0-0.3,0c-0.1,0-0.2,0-0.3,0s-0.1,0-0.2-0.1
			c-0.1,0-0.1-0.1-0.1-0.1v-0.1v-8.4v-0.1l0.1-0.1c0.1,0,0.1,0,0.2-0.1c0.1,0,0.1,0,0.3,0c0.1,0,0.2,0,0.3,0c0.1,0,0.1,0,0.2,0.1
			c0.1,0,0.1,0.1,0.1,0.1v0.1V83.6L145.5,83.6z M155.9,81.1c0,0.1,0,0.1,0,0.2c0,0.1,0,0.1,0,0.1c0,0.1,0,0.1-0.1,0.1l-0.1,0.1
			c-0.1,0.1-0.1,0.1-0.2,0.1c-0.1,0.1-0.2,0.1-0.3,0.1c-0.1,0.1-0.3,0.1-0.5,0.1c-0.2,0.1-0.4,0.1-0.6,0.1c-0.4,0-0.8-0.1-1.2-0.2
			c-0.3-0.1-0.6-0.3-0.9-0.6c-0.3-0.3-0.4-0.6-0.6-1c-0.1-0.4-0.2-0.8-0.2-1.4c0-0.6,0.1-1,0.2-1.5c0.1-0.4,0.3-0.8,0.6-1
			s0.6-0.5,0.9-0.6c0.3-0.1,0.8-0.2,1.2-0.2c0.2,0,0.3,0,0.5,0.1c0.1,0,0.3,0.1,0.4,0.1c0.1,0.1,0.3,0.1,0.3,0.1
			c0.1,0.1,0.2,0.1,0.2,0.1c0.1,0.1,0.1,0.1,0.1,0.1c0,0,0,0.1,0.1,0.1c0,0.1,0,0.1,0,0.1c0,0.1,0,0.1,0,0.2s0,0.2,0,0.3
			c0,0.1,0,0.1,0,0.1c0,0.1-0.1,0.1-0.1,0.1h-0.1c-0.1,0-0.1,0-0.2-0.1c-0.1-0.1-0.1-0.1-0.3-0.2c-0.1-0.1-0.3-0.1-0.4-0.2
			s-0.3-0.1-0.6-0.1c-0.3,0-0.5,0.1-0.7,0.1c-0.2,0.1-0.3,0.3-0.5,0.4c-0.1,0.2-0.3,0.4-0.3,0.7c-0.1,0.3-0.1,0.6-0.1,0.9
			s0.1,0.7,0.1,1c0.1,0.3,0.2,0.5,0.3,0.7s0.3,0.3,0.5,0.4c0.2,0.1,0.4,0.1,0.7,0.1c0.2,0,0.4,0,0.6-0.1c0.1-0.1,0.3-0.1,0.4-0.2
			c0.1-0.1,0.2-0.1,0.3-0.2s0.1-0.1,0.2-0.1h0.1l0.1,0.1c0,0.1,0,0.1,0,0.1C155.9,80.8,155.9,80.9,155.9,81.1L155.9,81.1z
			 M162.4,78.8c0,0.6-0.1,1-0.2,1.4s-0.3,0.8-0.6,1c-0.3,0.3-0.6,0.5-1,0.7c-0.3,0.1-0.8,0.2-1.3,0.2c-0.5,0-0.9-0.1-1.3-0.2
			c-0.3-0.1-0.7-0.3-0.9-0.6c-0.3-0.3-0.4-0.6-0.6-1c-0.1-0.4-0.2-0.9-0.2-1.5c0-0.5,0.1-1,0.2-1.4c0.1-0.4,0.3-0.8,0.6-1
			c0.3-0.3,0.6-0.5,1-0.6c0.3-0.1,0.8-0.2,1.3-0.2c0.5,0,0.9,0.1,1.3,0.2c0.3,0.1,0.7,0.3,0.9,0.6c0.3,0.3,0.4,0.6,0.6,1
			C162.3,77.7,162.4,78.2,162.4,78.8L162.4,78.8z M161,78.8c0-0.3,0-0.6-0.1-0.9c-0.1-0.3-0.1-0.5-0.3-0.7c-0.1-0.2-0.3-0.3-0.5-0.4
			c-0.2-0.1-0.5-0.1-0.8-0.1c-0.3,0-0.6,0.1-0.8,0.2c-0.2,0.1-0.4,0.3-0.5,0.5c-0.1,0.2-0.2,0.4-0.3,0.7c-0.1,0.3-0.1,0.6-0.1,0.8
			c0,0.3,0,0.6,0.1,0.9c0.1,0.3,0.1,0.5,0.3,0.7c0.1,0.2,0.3,0.3,0.5,0.4c0.2,0.1,0.5,0.1,0.8,0.1c0.3,0,0.6-0.1,0.8-0.2
			s0.4-0.3,0.5-0.5c0.1-0.2,0.2-0.4,0.3-0.7C161,79.4,161,79.1,161,78.8L161,78.8z M168.7,81.5c0,0.1,0,0.1-0.1,0.2
			c0,0.1-0.1,0.1-0.1,0.1c-0.1,0.1-0.1,0.1-0.1,0.1s-0.1,0-0.2,0h-0.6c-0.1,0-0.2,0-0.3,0c-0.1,0-0.1-0.1-0.2-0.1
			c-0.1-0.1-0.1-0.1-0.2-0.3c-0.1-0.1-0.1-0.2-0.2-0.4l-1.6-3c-0.1-0.2-0.2-0.3-0.3-0.6s-0.2-0.4-0.3-0.6l0,0c0,0.2,0,0.5,0,0.7
			c0,0.2,0,0.5,0,0.7v3.3v0.1l-0.1,0.1c-0.1,0-0.1,0-0.2,0.1c-0.1,0-0.1,0-0.3,0c-0.1,0-0.2,0-0.3,0s-0.1,0-0.2-0.1
			c-0.1,0-0.1-0.1-0.1-0.1v-0.1V76c0-0.1,0.1-0.3,0.1-0.3c0.1-0.1,0.2-0.1,0.3-0.1h0.7c0.1,0,0.2,0,0.3,0c0.1,0,0.1,0.1,0.2,0.1
			c0.1,0.1,0.1,0.1,0.2,0.2c0.1,0.1,0.1,0.2,0.2,0.3l1.3,2.3c0.1,0.1,0.1,0.3,0.2,0.4c0.1,0.1,0.1,0.3,0.2,0.4
			c0.1,0.1,0.1,0.3,0.2,0.4c0.1,0.1,0.1,0.3,0.2,0.4l0,0c0-0.2,0-0.5,0-0.7c0-0.3,0-0.5,0-0.7v-3v-0.1l0.1-0.1c0.1,0,0.1,0,0.2-0.1
			c0.1,0,0.1,0,0.3,0c0.1,0,0.2,0,0.3,0c0.1,0,0.1,0,0.1,0.1c0.1,0,0.1,0.1,0.1,0.1v0.1L168.7,81.5L168.7,81.5z M173.6,76.2
			c0,0.1,0,0.2,0,0.3c0,0.1,0,0.1-0.1,0.1c0,0.1-0.1,0.1-0.1,0.1h-0.1h-2.1v1.7h2h0.1l0.1,0.1c0,0.1,0,0.1,0.1,0.1
			c0,0.1,0,0.1,0,0.3c0,0.1,0,0.2,0,0.3c0,0.1,0,0.1-0.1,0.1c0,0.1-0.1,0.1-0.1,0.1h-0.1h-2v2.4c0,0.1,0,0.1,0,0.1s-0.1,0.1-0.1,0.1
			c-0.1,0-0.1,0-0.2,0.1c-0.1,0-0.2,0-0.3,0s-0.2,0-0.3,0s-0.1,0-0.2-0.1c-0.1,0-0.1-0.1-0.1-0.1v-0.1V76c0-0.1,0.1-0.3,0.1-0.3
			c0.1-0.1,0.1-0.1,0.3-0.1h3h0.1l0.1,0.1c0,0.1,0,0.1,0.1,0.1C173.6,76,173.6,76.1,173.6,76.2L173.6,76.2z M176,81.8L176,81.8
			c0,0.1-0.1,0.1-0.1,0.1c-0.1,0-0.1,0-0.2,0.1c-0.1,0-0.2,0-0.3,0c-0.1,0-0.2,0-0.3,0s-0.1,0-0.2-0.1c-0.1,0-0.1-0.1-0.1-0.1v-0.1
			v-6v-0.1c0,0,0.1-0.1,0.1-0.1c0.1,0,0.1,0,0.2-0.1c0.1,0,0.2,0,0.3,0c0.1,0,0.2,0,0.3,0c0.1,0,0.1,0,0.2,0.1
			c0.1,0,0.1,0.1,0.1,0.1v0.1V81.8L176,81.8z M182.6,78.8c0,0.6-0.1,1-0.2,1.5c-0.1,0.4-0.3,0.8-0.6,1c-0.3,0.3-0.6,0.5-1,0.6
			c-0.4,0.1-0.9,0.2-1.5,0.2h-1.5c-0.1,0-0.2,0-0.3-0.1c-0.1-0.1-0.1-0.1-0.1-0.3V76c0-0.1,0.1-0.3,0.1-0.3c0.1-0.1,0.1-0.1,0.3-0.1
			h1.6c0.6,0,1,0.1,1.5,0.2c0.4,0.1,0.7,0.3,1,0.6c0.3,0.3,0.5,0.6,0.6,1C182.5,77.8,182.6,78.2,182.6,78.8L182.6,78.8z M181.3,78.8
			c0-0.3-0.1-0.6-0.1-0.8c-0.1-0.3-0.2-0.5-0.3-0.7c-0.1-0.2-0.3-0.3-0.6-0.4c-0.3-0.1-0.6-0.1-1-0.1h-0.6V81h0.7
			c0.3,0,0.6-0.1,0.9-0.1c0.2-0.1,0.4-0.2,0.6-0.4c0.1-0.2,0.3-0.4,0.3-0.7C181.3,79.5,181.3,79.2,181.3,78.8L181.3,78.8z
			 M187.4,81.5c0,0.1,0,0.1,0,0.2s0,0.1-0.1,0.1c0,0.1-0.1,0.1-0.1,0.1h-0.1H184c-0.1,0-0.2,0-0.3-0.1c-0.1-0.1-0.1-0.1-0.1-0.3V76
			c0-0.1,0.1-0.3,0.1-0.3c0.1-0.1,0.1-0.1,0.3-0.1h3.1h0.1l0.1,0.1c0,0.1,0,0.1,0.1,0.1c0,0.1,0,0.1,0,0.3c0,0.1,0,0.1,0,0.2
			s0,0.1-0.1,0.1c0,0.1-0.1,0.1-0.1,0.1h-0.1h-2.2v1.5h1.9h0.1l0.1,0.1c0,0.1,0,0.1,0.1,0.1c0,0.1,0,0.1,0,0.2c0,0.1,0,0.1,0,0.2
			s0,0.1-0.1,0.1c0,0.1-0.1,0.1-0.1,0.1h-0.1h-1.9v1.8h2.3h0.1l0.1,0.1c0,0.1,0,0.1,0.1,0.1C187.4,81.3,187.4,81.4,187.4,81.5z"/>
		<path class="st3" d="M193.8,81.5c0,0.1,0,0.1-0.1,0.2c0,0.1-0.1,0.1-0.1,0.1c-0.1,0.1-0.1,0.1-0.1,0.1c-0.1,0-0.1,0-0.2,0h-0.6
			c-0.1,0-0.2,0-0.3,0s-0.1-0.1-0.2-0.1c-0.1-0.1-0.1-0.1-0.2-0.3c-0.1-0.1-0.1-0.2-0.2-0.4l-1.6-3c-0.1-0.2-0.2-0.3-0.3-0.6
			c-0.1-0.2-0.2-0.4-0.3-0.6l0,0c0,0.2,0,0.5,0,0.7c0,0.2,0,0.5,0,0.7v3.3v0.1l-0.1,0.1c-0.1,0-0.1,0-0.2,0.1c-0.1,0-0.1,0-0.3,0
			c-0.1,0-0.2,0-0.3,0c-0.1,0-0.1,0-0.2-0.1c-0.1,0-0.1-0.1-0.1-0.1v-0.1V76c0-0.1,0.1-0.3,0.1-0.3c0.1-0.1,0.2-0.1,0.3-0.1h0.7
			c0.1,0,0.2,0,0.3,0c0.1,0,0.1,0.1,0.2,0.1c0.1,0.1,0.1,0.1,0.2,0.2c0.1,0.1,0.1,0.2,0.2,0.3l1.3,2.3c0.1,0.1,0.1,0.3,0.2,0.4
			c0.1,0.1,0.1,0.3,0.2,0.4c0.1,0.1,0.1,0.3,0.2,0.4c0.1,0.1,0.1,0.3,0.2,0.4l0,0c0-0.2,0-0.5,0-0.7c0-0.3,0-0.5,0-0.7v-3v-0.1
			l0.1-0.1c0.1,0,0.1,0,0.2-0.1c0.1-0.1,0.1,0,0.3,0s0.2,0,0.3,0s0.1,0,0.1,0.1c0.1,0,0.1,0.1,0.1,0.1v0.1L193.8,81.5L193.8,81.5z
			 M199.4,76.2c0,0.1,0,0.2,0,0.3c0,0.1,0,0.1-0.1,0.1c0,0.1-0.1,0.1-0.1,0.1h-0.1h-1.6v5.1v0.1c0,0-0.1,0.1-0.1,0.1
			c-0.1,0-0.1,0-0.2,0.1c-0.1,0-0.2,0-0.3,0c-0.1,0-0.2,0-0.3,0c-0.1,0-0.1,0-0.2-0.1c-0.1,0-0.1-0.1-0.1-0.1v-0.1v-5h-1.6h-0.1
			l-0.1-0.1c0-0.1,0-0.1-0.1-0.1c0-0.1,0-0.1,0-0.3c0-0.1,0-0.2,0-0.3s0-0.1,0.1-0.1c0-0.1,0.1-0.1,0.1-0.1h0.1h4.5h0.1l0.1,0.1
			c0,0.1,0,0.1,0.1,0.1C199.4,76,199.4,76.1,199.4,76.2L199.4,76.2z M201.4,81.8L201.4,81.8c0,0.1-0.1,0.1-0.1,0.1
			c-0.1,0-0.1,0-0.2,0.1c-0.1,0-0.2,0-0.3,0s-0.2,0-0.3,0c-0.1,0-0.1,0-0.2-0.1c-0.1,0-0.1-0.1-0.1-0.1v-0.1v-6v-0.1
			c0,0,0.1-0.1,0.1-0.1c0.1,0,0.1,0,0.2-0.1c0.1,0,0.2,0,0.3,0c0.1,0,0.2,0,0.3,0c0.1,0,0.1,0,0.2,0.1c0.1,0,0.1,0.1,0.1,0.1v0.1
			V81.8L201.4,81.8z M208,81.5c0.1,0.1,0.1,0.2,0.1,0.3s0,0.1-0.1,0.1c-0.1,0-0.1,0.1-0.2,0.1c-0.1,0-0.2,0-0.3,0s-0.3,0-0.4,0
			c-0.1,0-0.1,0-0.2,0c-0.1,0-0.1-0.1-0.1-0.1l-0.1-0.1l-0.4-1.3h-2.4l-0.4,1.3c0,0.1,0,0.1-0.1,0.1l-0.1,0.1c-0.1,0-0.1,0-0.2,0.1
			c-0.1,0-0.2,0-0.3,0s-0.3,0-0.3,0c-0.1,0-0.1,0-0.2-0.1c0-0.1-0.1-0.1-0.1-0.1c0-0.1,0.1-0.1,0.1-0.3l2-5.6c0-0.1,0.1-0.1,0.1-0.1
			c0-0.1,0.1-0.1,0.1-0.1c0.1,0,0.1,0,0.2-0.1c0.1,0,0.2,0,0.4,0s0.3,0,0.5,0s0.2,0,0.3,0.1c0.1,0,0.1,0.1,0.1,0.1
			c0,0.1,0.1,0.1,0.1,0.1L208,81.5L208,81.5z M205.1,76.9L205.1,76.9l-0.9,2.7h1.8L205.1,76.9L205.1,76.9z M212.3,81.5
			c0,0.1,0,0.2,0,0.3c0,0.1,0,0.1-0.1,0.1c0,0.1-0.1,0.1-0.1,0.1h-0.1h-2.9c-0.1,0-0.2,0-0.3-0.1c-0.1-0.1-0.1-0.1-0.1-0.3v-5.8
			v-0.1c0,0,0.1-0.1,0.1-0.1c0.1,0,0.1,0,0.2-0.1c0.1,0,0.2,0,0.3,0c0.1,0,0.2,0,0.3,0c0.1,0,0.1,0,0.2,0.1c0.1,0,0.1,0.1,0.1,0.1
			v0.1v5.1h2h0.1l0.1,0.1c0,0.1,0,0.1,0.1,0.1C212.3,81.3,212.3,81.3,212.3,81.5L212.3,81.5z M214.4,81.8L214.4,81.8
			c0,0.1-0.1,0.1-0.1,0.1c-0.1,0-0.1,0-0.2,0.1c-0.1,0-0.2,0-0.3,0s-0.2,0-0.3,0c-0.1,0-0.1,0-0.2-0.1c-0.1,0-0.1-0.1-0.1-0.1v-0.1
			v-6v-0.1c0,0,0.1-0.1,0.1-0.1c0.1,0,0.1,0,0.2-0.1c0.1,0,0.2,0,0.3,0c0.1,0,0.2,0,0.3,0c0.1,0,0.1,0,0.2,0.1
			c0.1,0,0.1,0.1,0.1,0.1v0.1V81.8L214.4,81.8z M220,76.2c0,0.1,0,0.2,0,0.3c0,0.1,0,0.1-0.1,0.1c0,0.1-0.1,0.1-0.1,0.1h-0.1h-1.6
			v5.1v0.1c0,0-0.1,0.1-0.1,0.1c-0.1,0-0.1,0-0.2,0.1c-0.1,0-0.2,0-0.3,0c-0.1,0-0.2,0-0.3,0c-0.1,0-0.1,0-0.2-0.1
			c-0.1,0-0.1-0.1-0.1-0.1v-0.1v-5h-1.6h-0.1l-0.1-0.1c0-0.1,0-0.1-0.1-0.1c0-0.1,0-0.1,0-0.3c0-0.1,0-0.2,0-0.3s0-0.1,0.1-0.1
			c0-0.1,0.1-0.1,0.1-0.1h0.1h4.5h0.1l0.1,0.1c0,0.1,0,0.1,0.1,0.1C220,76,220,76.1,220,76.2L220,76.2z M223.3,79.6v2.2v0.1
			c0,0-0.1,0.1-0.1,0.1c-0.1,0-0.1,0-0.2,0.1c-0.1,0-0.2,0-0.3,0c-0.1,0-0.2,0-0.3,0c-0.1,0-0.1,0-0.2-0.1c-0.1,0-0.1-0.1-0.1-0.1
			v-0.1v-2.2l-1.7-3.5c-0.1-0.1-0.1-0.2-0.1-0.3c0-0.1,0-0.1,0-0.1c0.1,0,0.1-0.1,0.2-0.1s0.2,0,0.4,0c0.1,0,0.3,0,0.3,0
			c0.1,0,0.1,0,0.2,0.1c0.1,0,0.1,0.1,0.1,0.1c0,0,0.1,0.1,0.1,0.1l0.7,1.5c0.1,0.1,0.1,0.3,0.2,0.5c0.1,0.1,0.1,0.3,0.2,0.6l0,0
			c0.1-0.2,0.1-0.3,0.2-0.5c0.1-0.1,0.1-0.3,0.2-0.5l0.7-1.5c0-0.1,0.1-0.1,0.1-0.1c0,0,0.1-0.1,0.1-0.1c0.1,0,0.1,0,0.2-0.1
			c0.1,0,0.2,0,0.3,0c0.2,0,0.3,0,0.4,0c0.1,0,0.1,0,0.2,0.1c0.1,0.1,0.1,0.1,0,0.1c0,0.1-0.1,0.1-0.1,0.3L223.3,79.6L223.3,79.6z
			 M231.6,83.6L231.6,83.6l-0.1,0.1c-0.1,0-0.1,0-0.2,0.1c-0.1,0-0.1,0-0.3,0c-0.1,0-0.2,0-0.3,0c-0.1,0-0.1,0-0.2-0.1
			c-0.1,0-0.1-0.1-0.1-0.1v-0.1v-8.4v-0.1l0.1-0.1c0.1,0,0.1,0,0.2-0.1c0.1,0,0.1,0,0.3,0c0.1,0,0.2,0,0.3,0c0.1,0,0.1,0,0.2,0.1
			c0.1,0,0.1,0.1,0.1,0.1v0.1V83.6L231.6,83.6z M241.7,76.2c0,0.1,0,0.2,0,0.3c0,0.1,0,0.1-0.1,0.1c0,0.1-0.1,0.1-0.1,0.1h-0.1h-1.6
			v5.1v0.1c0,0-0.1,0.1-0.1,0.1c-0.1,0-0.1,0-0.2,0.1c-0.1,0-0.2,0-0.3,0c-0.1,0-0.2,0-0.3,0c-0.1,0-0.1,0-0.2-0.1
			c-0.1,0-0.1-0.1-0.1-0.1v-0.1v-5h-1.6H237l-0.1-0.1c0-0.1,0-0.1-0.1-0.1c0-0.1,0-0.1,0-0.3c0-0.1,0-0.2,0-0.3s0-0.1,0.1-0.1
			c0-0.1,0.1-0.1,0.1-0.1h0.1h4.5h0.1l0.1,0.1c0,0.1,0,0.1,0.1,0.1C241.7,76,241.7,76.1,241.7,76.2L241.7,76.2z M243.8,81.8
			L243.8,81.8c0,0.1-0.1,0.1-0.1,0.1c-0.1,0-0.1,0-0.2,0.1c-0.1,0-0.2,0-0.3,0s-0.2,0-0.3,0c-0.1,0-0.1,0-0.2-0.1
			c-0.1,0-0.1-0.1-0.1-0.1v-0.1v-6v-0.1c0,0,0.1-0.1,0.1-0.1c0.1,0,0.1,0,0.2-0.1c0.1,0,0.2,0,0.3,0c0.1,0,0.2,0,0.3,0
			c0.1,0,0.1,0,0.2,0.1c0.1,0,0.1,0.1,0.1,0.1v0.1V81.8L243.8,81.8z M252.5,81.8L252.5,81.8l-0.1,0.1c-0.1,0-0.1,0-0.2,0.1
			c-0.1,0-0.2,0-0.3,0c-0.1,0-0.2,0-0.3,0c-0.1,0-0.1,0-0.2-0.1c-0.1,0-0.1-0.1-0.1-0.1v-0.1v-5.2l0,0l-1.8,5.2c0,0.1,0,0.1-0.1,0.1
			c0,0-0.1,0.1-0.1,0.1c-0.1,0-0.1,0-0.2,0c-0.1,0-0.1,0-0.3,0c-0.1,0-0.2,0-0.3,0c-0.1,0-0.1,0-0.2-0.1c-0.1,0-0.1-0.1-0.1-0.1
			l-0.1-0.1l-1.7-5.2l0,0v5.2v0.1l-0.1,0.1c-0.1,0-0.1,0-0.2,0.1c-0.1,0-0.2,0-0.3,0c-0.1,0-0.2,0-0.3,0c-0.1,0-0.1,0-0.2-0.1
			c-0.1,0-0.1-0.1-0.1-0.1v-0.1v-5.6c0-0.1,0.1-0.3,0.1-0.3c0.1-0.1,0.2-0.1,0.3-0.1h0.8c0.1,0,0.3,0,0.4,0.1c0.1,0,0.2,0.1,0.3,0.1
			c0.1,0.1,0.1,0.1,0.2,0.2c0.1,0.1,0.1,0.2,0.1,0.3l1.4,3.8l0,0l1.4-3.8c0.1-0.1,0.1-0.3,0.1-0.3c0.1-0.1,0.1-0.1,0.2-0.2
			c0.1-0.1,0.1-0.1,0.2-0.1c0.1,0,0.2-0.1,0.3-0.1h0.8c0.1,0,0.1,0,0.2,0.1c0.1,0,0.1,0.1,0.1,0.1c0.1,0.1,0.1,0.1,0.1,0.1
			s0,0.1,0,0.2v5.6H252.5z M257.7,81.5c0,0.1,0,0.1,0,0.2s0,0.1-0.1,0.1c0,0.1-0.1,0.1-0.1,0.1h-0.1h-3.2c-0.1,0-0.2,0-0.3-0.1
			c-0.1-0.1-0.1-0.1-0.1-0.3V76c0-0.1,0.1-0.3,0.1-0.3c0.1-0.1,0.1-0.1,0.3-0.1h3.1h0.1l0.1,0.1c0,0.1,0,0.1,0.1,0.1
			c0,0.1,0,0.1,0,0.3c0,0.1,0,0.1,0,0.2s0,0.1-0.1,0.1c0,0.1-0.1,0.1-0.1,0.1h-0.1h-2.2v1.5h1.9h0.1l0.1,0.1c0,0.1,0,0.1,0.1,0.1
			c0,0.1,0,0.1,0,0.2c0,0.1,0,0.1,0,0.2s0,0.1-0.1,0.1c0,0.1-0.1,0.1-0.1,0.1H257h-1.9v1.8h2.3h0.1l0.1,0.1c0,0.1,0,0.1,0.1,0.1
			C257.7,81.3,257.7,81.4,257.7,81.5L257.7,81.5z M262.3,81.5c0,0.1,0,0.2,0,0.3c0,0.1,0,0.1-0.1,0.1c0,0.1-0.1,0.1-0.1,0.1h-0.1
			h-2.9c-0.1,0-0.2,0-0.3-0.1c-0.1-0.1-0.1-0.1-0.1-0.3v-5.8v-0.1c0,0,0.1-0.1,0.1-0.1s0.1,0,0.2-0.1c0.1,0,0.2,0,0.3,0
			c0.1,0,0.2,0,0.3,0c0.1,0,0.1,0,0.2,0.1c0.1,0,0.1,0.1,0.1,0.1v0.1v5.1h2h0.1l0.1,0.1c0,0.1,0,0.1,0.1,0.1
			C262.3,81.3,262.3,81.3,262.3,81.5L262.3,81.5z M264.7,79.6l1.7-3.5c0.1-0.1,0.1-0.2,0.1-0.3c0-0.1,0-0.1,0-0.1
			c-0.1,0-0.1-0.1-0.2-0.1s-0.3,0-0.4,0c-0.1,0-0.3,0-0.3,0c-0.1,0-0.1,0-0.2,0.1c-0.1,0-0.1,0.1-0.1,0.1c0,0-0.1,0.1-0.1,0.1
			l-0.7,1.5c-0.1,0.1-0.1,0.3-0.2,0.5c-0.1,0.1-0.1,0.3-0.2,0.5l0,0c-0.1-0.2-0.1-0.3-0.2-0.6c-0.1-0.1-0.1-0.3-0.2-0.5l-0.7-1.5
			c0-0.1-0.1-0.1-0.1-0.1c0,0-0.1-0.1-0.1-0.1c-0.1,0-0.1,0-0.2-0.1c-0.1,0-0.2,0-0.3,0c-0.2,0-0.3,0-0.4,0s-0.1,0-0.2,0.1
			s-0.1,0.1,0,0.1c0,0.1,0.1,0.1,0.1,0.3l1.7,3.5v2.2v0.1c0,0,0.1,0.1,0.1,0.1s0.1,0,0.2,0.1c0.1,0,0.2,0,0.3,0c0.1,0,0.2,0,0.3,0
			s0.1,0,0.2-0.1c0.1,0,0.1-0.1,0.1-0.1v-0.1L264.7,79.6L264.7,79.6z"/>
	</g>
</g>
</svg>
